<svg width="23" height="27" viewBox="0 0 23 27" fill="none" xmlns="http://www.w3.org/2000/svg">
<g clip-path="url(#clip0_307_50)">
<path d="M12.779 26.5745C14.8832 24.0037 16.8518 21.3227 18.6429 18.5241C20.3227 15.8994 22.0523 13.0856 22.5342 9.95328C22.964 7.15949 22.3913 4.14639 20.4094 2.03295C18.6764 0.184877 15.8775 -0.502933 13.4904 0.385329C12.2179 0.858859 11.0727 1.73133 10.4737 2.97619C9.6067 4.77812 9.86082 6.72541 10.186 8.62536L12.8645 7.49617C11.9147 5.3253 10.6628 3.0577 8.25327 2.28817C6.04054 1.58148 3.49917 2.46833 1.94176 4.12478C0.103312 6.08016 -0.288014 8.85375 0.181671 11.4112C0.674721 14.0958 2.25529 16.3996 3.90837 18.5046C6.01821 21.1913 8.22352 23.8072 10.3843 26.453C10.8853 27.0664 11.9367 26.973 12.4567 26.453C13.0633 25.8464 12.959 24.9955 12.4567 24.3806C10.824 22.3813 9.19116 20.382 7.55838 18.3827C6.15041 16.6587 4.6985 14.9398 3.73233 12.9166C2.92559 11.2273 2.55316 9.08555 3.30367 7.30866C3.88058 5.94276 5.32808 4.87081 6.82942 4.97731C8.75481 5.1139 9.66314 7.44249 10.3338 8.97542C10.6222 9.6346 11.5641 9.83857 12.1637 9.575C12.8729 9.26325 13.1391 8.58746 13.0122 7.84622C12.8284 6.77239 12.577 5.50351 13.0044 4.45544C13.271 3.80185 13.8379 3.36561 14.4346 3.15162C15.9504 2.60804 17.603 3.05992 18.6339 4.45607C21.6018 8.47569 18.2666 13.6913 16.0394 17.1586C14.4029 19.7062 12.6244 22.159 10.7066 24.5021C10.2057 25.1141 10.1078 25.9758 10.7066 26.5745C11.2235 27.0914 12.2752 27.19 12.779 26.5745Z" fill="#682AE9"/>
</g>
<defs>
<clipPath id="clip0_307_50">
<rect width="22.6686" height="27" fill="white"/>
</clipPath>
</defs>
</svg>
