<svg width="108" height="42" viewBox="0 0 108 42" fill="none" xmlns="http://www.w3.org/2000/svg">
<path d="M0.0889753 21.2734C1.7605 30.8959 11.491 36.767 20.8136 35.6085C30.3189 34.4274 38.1258 26.9747 40.8445 17.9116C42.245 13.243 41.6709 7.98847 38.0687 4.4629C34.4186 0.890463 28.6579 0.633327 24.8711 4.12732C16.9653 11.4218 23.865 22.8988 28.9273 29.617C34.9552 37.6166 44.4191 43.0877 54.4736 39.1247C63.2367 35.6707 72.0034 28.2447 74.8157 19.0198C76.1922 14.5048 76.1271 9.08029 73.5554 4.98708C70.6784 0.408204 64.7317 -1.48719 59.9642 1.30864C51.0052 6.56245 54.5082 20.0056 58.647 27.2406C63.8391 36.3168 73.8721 42.4924 84.4694 41.9691C94.6406 41.4669 103.417 35.0162 106.941 25.4914C107.772 23.2427 106.011 20.6274 103.84 20.031C101.36 19.3495 99.2148 20.8745 98.3799 23.1313C94.3997 33.8902 80.7129 35.5314 72.1654 29.4266C67.5234 26.1113 64.699 20.7971 63.5825 15.2993C63.132 13.0805 62.9277 10.7498 64.4449 8.97433C64.7325 8.63784 65.3422 8.89599 64.6729 8.7527C65.1398 8.85267 65.3825 8.97488 65.711 9.28572C66.4642 9.99866 66.6877 11.2152 66.7909 12.1977C67.4257 18.2373 62.698 23.4605 58.2124 26.8035C53.4697 30.338 47.9719 33.3683 42.2599 30.1581C37.123 27.2712 33.3509 21.2444 30.995 15.9875C30.5108 14.9069 30.0175 13.5714 30.1544 12.3619C30.2102 11.8689 30.5353 10.5485 31.1707 10.415C32.313 10.1751 32.7186 12.5877 32.701 13.3245C32.5621 19.1274 26.9585 25.0115 21.5909 26.4717C15.7334 28.0651 9.72311 25.093 8.64963 18.9133C8.23905 16.5497 5.34019 15.2219 3.18926 15.813C0.691972 16.4994 -0.322794 18.903 0.0889753 21.2734Z" fill="#682AE9"/>
</svg>
