<svg fill="none" xmlns="http://www.w3.org/2000/svg" viewBox="12.25 2.23 43 37"><g clip-path="url(#clip0_307_46)"><path d="M14.3012 6.39692C26.9446 11.6272 39.5879 16.8575 52.2312 22.0878L52.2982 18.0909C40.5356 23.7198 28.7731 29.3487 17.0106 34.9775L19.4896 38.348C21.7 35.5164 23.9009 32.6774 26.0911 29.8302C28.0211 27.3211 30.6819 24.4765 28.9638 21.1329C28.2277 19.7004 27.1032 18.4578 26.1314 17.1831C24.998 15.6964 23.8646 14.2097 22.7312 12.723C20.5517 9.86397 18.372 7.00496 16.1925 4.14594C14.5024 1.92914 11.0116 4.48671 12.7018 6.70377C16.6247 11.8496 20.5835 16.9703 24.4716 22.1425C25.0692 22.9374 25.4435 23.3215 24.8963 24.236C24.1424 25.496 23.0904 26.6356 22.1958 27.7972C20.1793 30.4155 18.1537 33.0267 16.1201 35.6318C14.8597 37.2464 16.5729 39.9718 18.5991 39.0022C30.3617 33.3733 42.1242 27.7444 53.8867 22.1155C55.5058 21.3407 55.7837 18.8756 53.9537 18.1186C41.3104 12.8883 28.6671 7.65805 16.0238 2.42777C13.4534 1.36446 11.7228 5.33026 14.3012 6.39692Z" fill="#ADADAD"></path></g><defs><clipPath id="clip0_307_46"><rect width="33.9045" height="45.5445" fill="white" transform="translate(55.877 18.9529) rotate(113.46)"></rect></clipPath></defs></svg>